<?xml version="1.0" encoding="UTF-8" standalone="no"?>
<svg width="128px" height="128px" viewBox="0 0 128 128" version="1.1" xmlns="http://www.w3.org/2000/svg" xmlns:xlink="http://www.w3.org/1999/xlink" xmlns:sketch="http://www.bohemiancoding.com/sketch/ns">
    <!-- Generator: Sketch 3.0.2 (7799) - http://www.bohemiancoding.com/sketch -->
    <title>remote</title>
    <description>Created with Sketch.</description>
    <defs></defs>
    <g id="Page-1" stroke="none" stroke-width="1" fill="none" fill-rule="evenodd" sketch:type="MSPage">
        <g id="remote" sketch:type="MSLayerGroup" transform="translate(6.000000, 6.000000)">
            <circle id="Oval-2" stroke="#BCC6C5" stroke-width="11" stroke-linecap="round" stroke-dasharray="20,20" sketch:type="MSShapeGroup" cx="58" cy="58" r="58"></circle>
            <path d="M63.5111639,29.7085394 C76.949127,32.6823305 87,44.6674116 87,59 C87,75.5685425 73.5685425,89 57,89 C40.4314575,89 27,75.5685425 27,59 C27,48.5378802 32.3554246,39.3265869 40.4744466,33.957947 L51.2139675,39.1088732 L39.0057919,45.2467598 L38,54.6498328 L46.0805859,60.5279981 L47.8231789,63.8952475 L45.9218646,66.940542 L42.4366785,72.1889039 C42.4366785,72.1889039 49.8188906,78.6495751 50.9917576,78.6495751 C52.1646246,78.6495751 60.9260414,84 60.9260414,84 L67.105313,83.5278549 L68,77.9094109 L63.666908,67.7827693 C63.666908,67.7827693 65.1480285,61.5818193 63.666908,61.5818193 C62.1857875,61.5818193 49.4872466,62.4240466 49.4872466,62.4240466 L48.6393406,59.7961316 L56.3473491,54.3901115 C56.3473491,54.3901115 53.4402428,57.4901715 55.5554132,57.4901715 C57.6705836,57.4901715 60.3638338,58.3863345 60.3638338,56.388223 C60.3638338,54.3901115 59.7297839,48.4098832 59.7297839,48.4098832 L57.1392849,45.5222469 L61.1557697,39.7461446 L55.5554132,35.1342245 C55.5554132,35.1342245 65.6785142,31.7976382 63.5111639,29.7085394 L63.5111639,29.7085394 Z M77.8984209,50.7511991 L79.9470865,55.0095251 L80.5778927,63.8350334 L77.4728969,70 L82.6822421,66.1559143 L83.0520824,68.3697899 L86,61.3439168 L84.896297,52.2111734 L80.057623,46.3080457 L77,46 L77.8984209,50.7511991 Z M30,67.1551065 L30.8135946,70.7367559 L33.4721372,75.4595849 L37,78 L36.2927128,75.0942108 L33.959951,71.3036592 L32.76485,67.3574549 L31.2439682,66.1138722 L30.2683405,60 L30,67.1551065 Z" id="Oval-6" fill="#BCC6C5" sketch:type="MSShapeGroup"></path>
        </g>
    </g>
</svg>